<?xml version="1.0" encoding="UTF-8" standalone="no"?>
<svg
   height="300px"
   width="300px"
   fill="#920de9"
   version="1.1"
   x="0px"
   y="0px"
   viewBox="0 0 100 100"
   style="enable-background:new 0 0 100 100;"
   xml:space="preserve"
   id="svg1"
   sodipodi:docname="icon_quote.svg"
   inkscape:version="1.3.2 (091e20e, 2023-11-25)"
   xmlns:inkscape="http://www.inkscape.org/namespaces/inkscape"
   xmlns:sodipodi="http://sodipodi.sourceforge.net/DTD/sodipodi-0.dtd"
   xmlns="http://www.w3.org/2000/svg"
   xmlns:svg="http://www.w3.org/2000/svg"><defs
     id="defs1" /><sodipodi:namedview
     id="namedview1"
     pagecolor="#ffffff"
     bordercolor="#666666"
     borderopacity="1.0"
     inkscape:showpageshadow="2"
     inkscape:pageopacity="0.0"
     inkscape:pagecheckerboard="0"
     inkscape:deskcolor="#d1d1d1"
     inkscape:zoom="2.8369275"
     inkscape:cx="149.80996"
     inkscape:cy="150.16246"
     inkscape:window-width="1920"
     inkscape:window-height="1027"
     inkscape:window-x="0"
     inkscape:window-y="25"
     inkscape:window-maximized="1"
     inkscape:current-layer="svg1" /><style
     type="text/css"
     id="style1">
	.st0{fill-rule:evenodd;clip-rule:evenodd;}
</style><path
     class="st0"
     d="M75.6,40.5c11,0,19.9,9,19.9,20c0,11-9,20-20,20s-20-9-20-20c0-22.1,17.9-40,40-40  C95.5,20.5,82.4,25.4,75.6,40.5z M45.5,60.5c0,11-9,20-20,20s-20-9-20-20l0,0c0-22.1,17.9-40,40-40c0,0-13.1,4.9-19.9,20  C36.6,40.5,45.5,49.5,45.5,60.5z"
     id="path1"
     style="fill:#ffb6c9;fill-opacity:1" /></svg>
